# xmcd
#
# Track frame offsets:
#	150
#	17475
#	47025
#	73950
#	105375
#	146475
#
# Disc length: 2186 seconds
#
# Revision: 1
# Processed by: cddbd v1.5.1PL0 Copyright (c) Steve Scherf et al.
# Submitted via: CDex 1.50Beta5
#
DISCID=4c088806
DTITLE=大野まりな - 巫女〜みにょ〜予約キャンペーンスペシャルDiSK
DYEAR=2003
DGENRE=Game
TTITLE0=大野まりな/ハラタマ　キヨタマ
TTITLE1=TakeOut/みにょラジ　第一回
TTITLE2=TakeOut/みにょラジ　第二回
TTITLE3=TakeOut/みにょラジ　第三回
TTITLE4=TakeOut/ミニドラマ”みにょ”
TTITLE5=milktub/真・ハラタマ　キヨタマ
EXTD=
EXTT0=
EXTT1=
EXTT2=
EXTT3=
EXTT4=
EXTT5=
PLAYORDER=
